<svg xmlns="http://www.w3.org/2000/svg" xmlns:xlink="http://www.w3.org/1999/xlink" xmlns:sketch="http://www.bohemiancoding.com/sketch/ns" width="12px" height="16px" viewBox="0 0 12 16" version="1.1"><style>.style0{fill:	none;fill-rule:	evenodd;}.style1{fill:	#4ad98f;}</style><title>Post List</title><description>Created with Sketch (http://www.bohemiancoding.com/sketch)</description><defs/><g sketch:type="MSPage" class="style0"><g sketch:type="MSArtboardGroup" transform="translate(-251.000000, -1503.000000)" class="style1"><g sketch:type="MSLayerGroup" transform="translate(0.000000, 1481.000000)"><g sketch:type="MSShapeGroup"><path d="M254 24.5 L254 22 L251 25 L254 28 L254 25.5 L258 25.5 C260.3 25.5 261.7 27 261.6 29 C261.6 29.4 261.5 29.8 261.4 30.1 C261.4 30.1 261.4 30.1 261.4 30.1 C260.6 29.1 259.5 28.5 258 28.5 C256.3 28.5 255 29.6 254.9 31 C254.7 32.4 256 33.5 258 33.5 C259.3 33.5 260.4 33 261.2 32.2 C261.2 32.2 261.2 32.1 261.2 32.1 C261.3 32.4 261.3 32.7 261.3 33 C261.3 35 260 36.5 258 36.5 L258 37.5 C260.6 37.5 262.3 35.5 262.3 33 C262.3 32.4 262.2 31.8 262 31.2 C262.3 30.6 262.6 29.8 262.6 29 C262.7 26.5 260.9 24.5 258 24.5 L254 24.5 ZM258 32.5 C256.5 32.5 255.8 31.9 255.9 31 C255.9 30.2 256.8 29.5 258 29.5 C259.3 29.5 260.3 30.1 260.8 31.1 C260.2 32 259.2 32.5 258 32.5 Z"/></g></g></g></g></svg>